name rise36.2859peak64.2979fall75.1499.mot
datacolumns 19
datarows 30
range 23.95990800000000 24.00824500000000
endheader
time	ground_force1_vx	ground_force1_vy	ground_force1_vz	ground_force1_px	ground_force1_py	ground_force1_pz	ground_force2_vx	ground_force2_vy	ground_force2_vz	ground_force2_px	ground_force2_py	ground_force2_pz	ground_torque1_x	ground_torque1_y	ground_torque1_z	ground_torque2_x	ground_torque2_y	ground_torque2_z	
23.95990800000000	51.32745700000000	714.58465500000000	58.25001900000000	0.34892100000000	0.00000000000000	0.12778600000000	-3.47435000000000	33.58760800000000	1.28604200000000	0.01120000000000	0.00000000000000	-0.06459900000000	0.00000000000000	27.20626200000000	0.00000000000000	0.00000000000000	-0.45601200000000	0.00000000000000	
23.96157100000000	50.74903500000000	718.14660400000002	58.40926700000000	0.34764900000000	0.00000000000000	0.12777200000000	-2.59771400000000	27.14739700000000	1.08750600000000	-0.00460000000000	0.00000000000000	-0.06484900000000	0.00000000000000	27.29294900000000	0.00000000000000	0.00000000000000	-0.34624300000000	0.00000000000000	
23.96324400000000	50.17654800000000	721.63190899999995	58.57375500000000	0.34643100000000	0.00000000000000	0.12775700000000	-1.83738000000000	21.14395500000000	0.88813800000000	0.00000000000000	0.00000000000000	0.00000000000000	0.00000000000000	27.38482800000000	0.00000000000000	0.00000000000000	-0.11163800000000	0.00000000000000	
23.96490500000000	49.61042100000000	725.03608699999995	58.74337000000000	0.34526900000000	0.00000000000000	0.12774200000000	-1.19642500000000	15.68727700000000	0.69476600000000	0.00000000000000	0.00000000000000	0.00000000000000	0.00000000000000	27.48182800000000	0.00000000000000	0.00000000000000	-0.06229200000000	0.00000000000000	
23.96658200000000	49.05099400000000	728.35463600000003	58.91789800000000	0.34416100000000	0.00000000000000	0.12772700000000	-0.67433100000000	10.86895900000000	0.51371400000000	0.00000000000000	0.00000000000000	0.00000000000000	0.00000000000000	27.58381200000000	0.00000000000000	0.00000000000000	-0.02415400000000	0.00000000000000	
23.96824500000000	48.49852400000000	731.58306200000004	59.09702300000000	0.34310700000000	0.00000000000000	0.12771000000000	-0.26688300000000	6.75430700000000	0.35035400000000	0.00000000000000	0.00000000000000	0.00000000000000	0.00000000000000	27.69058100000000	0.00000000000000	0.00000000000000	0.00366700000000	0.00000000000000	
23.96990800000000	47.95318400000000	734.71690200000000	59.28033900000000	0.34210600000000	0.00000000000000	0.12769300000000	0.03362100000000	3.37725600000000	0.20876200000000	0.00000000000000	0.00000000000000	0.00000000000000	0.00000000000000	27.80187400000000	0.00000000000000	0.00000000000000	0.02232000000000	0.00000000000000	
23.97157300000000	47.41507100000000	737.75175200000001	59.46734800000000	0.34115700000000	0.00000000000000	0.12767600000000	0.00000000000000	0.00000000000000	0.00000000000000	0.00000000000000	0.00000000000000	0.00000000000000	0.00000000000000	27.91737700000000	0.00000000000000	0.00000000000000	0.00000000000000	0.00000000000000	
23.97324500000000	46.88420700000000	740.68328899999995	59.65747000000000	0.34026000000000	0.00000000000000	0.12765800000000	0.00000000000000	0.00000000000000	0.00000000000000	0.00000000000000	0.00000000000000	0.00000000000000	0.00000000000000	28.03672100000000	0.00000000000000	0.00000000000000	0.00000000000000	0.00000000000000	
23.97490900000000	46.36054400000000	743.50729799999999	59.85004800000000	0.33941200000000	0.00000000000000	0.12763900000000	0.00000000000000	0.00000000000000	0.00000000000000	0.00000000000000	0.00000000000000	0.00000000000000	0.00000000000000	28.15948700000000	0.00000000000000	0.00000000000000	0.00000000000000	0.00000000000000	
23.97657800000000	45.84396700000000	746.21969600000000	60.04435500000000	0.33861300000000	0.00000000000000	0.12761900000000	0.00000000000000	0.00000000000000	0.00000000000000	0.00000000000000	0.00000000000000	0.00000000000000	0.00000000000000	28.28521100000000	0.00000000000000	0.00000000000000	0.00000000000000	0.00000000000000	
23.97824300000000	45.33430100000000	748.81655300000000	60.23960000000000	0.33786100000000	0.00000000000000	0.12759800000000	0.00000000000000	0.00000000000000	0.00000000000000	0.00000000000000	0.00000000000000	0.00000000000000	0.00000000000000	28.41339000000000	0.00000000000000	0.00000000000000	0.00000000000000	0.00000000000000	
23.97990500000000	44.83131000000000	751.29411800000003	60.43493300000000	0.33715300000000	0.00000000000000	0.12757700000000	0.00000000000000	0.00000000000000	0.00000000000000	0.00000000000000	0.00000000000000	0.00000000000000	0.00000000000000	28.54347900000000	0.00000000000000	0.00000000000000	0.00000000000000	0.00000000000000	
23.98158000000000	44.33470800000000	753.64883799999996	60.62945800000000	0.33648800000000	0.00000000000000	0.12755500000000	0.00000000000000	0.00000000000000	0.00000000000000	0.00000000000000	0.00000000000000	0.00000000000000	0.00000000000000	28.67490200000000	0.00000000000000	0.00000000000000	0.00000000000000	0.00000000000000	
23.98324600000000	43.84416000000000	755.87737800000002	60.82223500000000	0.33586300000000	0.00000000000000	0.12753200000000	0.00000000000000	0.00000000000000	0.00000000000000	0.00000000000000	0.00000000000000	0.00000000000000	0.00000000000000	28.80705500000000	0.00000000000000	0.00000000000000	0.00000000000000	0.00000000000000	
23.98491200000000	43.35928900000000	757.97664299999997	61.01229100000000	0.33527700000000	0.00000000000000	0.12750800000000	0.00000000000000	0.00000000000000	0.00000000000000	0.00000000000000	0.00000000000000	0.00000000000000	0.00000000000000	28.93930800000000	0.00000000000000	0.00000000000000	0.00000000000000	0.00000000000000	
23.98657200000000	42.87967900000000	759.94379600000002	61.19862400000000	0.33472600000000	0.00000000000000	0.12748300000000	0.00000000000000	0.00000000000000	0.00000000000000	0.00000000000000	0.00000000000000	0.00000000000000	0.00000000000000	29.07100800000000	0.00000000000000	0.00000000000000	0.00000000000000	0.00000000000000	
23.98824000000000	42.40488300000000	761.77627099999995	61.38021500000000	0.33420800000000	0.00000000000000	0.12745700000000	0.00000000000000	0.00000000000000	0.00000000000000	0.00000000000000	0.00000000000000	0.00000000000000	0.00000000000000	29.20148900000000	0.00000000000000	0.00000000000000	0.00000000000000	0.00000000000000	
23.98991400000000	41.93442400000000	763.47179500000004	61.55603400000000	0.33372100000000	0.00000000000000	0.12743000000000	0.00000000000000	0.00000000000000	0.00000000000000	0.00000000000000	0.00000000000000	0.00000000000000	0.00000000000000	29.33007300000000	0.00000000000000	0.00000000000000	0.00000000000000	0.00000000000000	
23.99157800000000	41.46780400000000	765.02839600000004	61.72504700000000	0.33326200000000	0.00000000000000	0.12740200000000	0.00000000000000	0.00000000000000	0.00000000000000	0.00000000000000	0.00000000000000	0.00000000000000	0.00000000000000	29.45607200000000	0.00000000000000	0.00000000000000	0.00000000000000	0.00000000000000	
23.99324200000000	41.00450700000000	766.44441900000004	61.88622200000000	0.33282800000000	0.00000000000000	0.12737300000000	0.00000000000000	0.00000000000000	0.00000000000000	0.00000000000000	0.00000000000000	0.00000000000000	0.00000000000000	29.57879700000000	0.00000000000000	0.00000000000000	0.00000000000000	0.00000000000000	
23.99491200000000	40.54400700000000	767.71853399999998	62.03854100000000	0.33241500000000	0.00000000000000	0.12734300000000	0.00000000000000	0.00000000000000	0.00000000000000	0.00000000000000	0.00000000000000	0.00000000000000	0.00000000000000	29.69756000000000	0.00000000000000	0.00000000000000	0.00000000000000	0.00000000000000	
23.99657500000000	40.08576600000000	768.84974999999997	62.18100200000000	0.33202200000000	0.00000000000000	0.12731300000000	0.00000000000000	0.00000000000000	0.00000000000000	0.00000000000000	0.00000000000000	0.00000000000000	0.00000000000000	29.81167800000000	0.00000000000000	0.00000000000000	0.00000000000000	0.00000000000000	
23.99824100000000	39.62924800000000	769.83741899999995	62.31263000000000	0.33164400000000	0.00000000000000	0.12728100000000	0.00000000000000	0.00000000000000	0.00000000000000	0.00000000000000	0.00000000000000	0.00000000000000	0.00000000000000	29.92047700000000	0.00000000000000	0.00000000000000	0.00000000000000	0.00000000000000	
23.99990900000000	39.17391700000000	770.68124200000000	62.43248000000000	0.33127900000000	0.00000000000000	0.12724800000000	0.00000000000000	0.00000000000000	0.00000000000000	0.00000000000000	0.00000000000000	0.00000000000000	0.00000000000000	30.02329600000000	0.00000000000000	0.00000000000000	0.00000000000000	0.00000000000000	
24.00157300000000	38.71924300000000	771.38127499999996	62.53964500000000	0.33092400000000	0.00000000000000	0.12721400000000	0.00000000000000	0.00000000000000	0.00000000000000	0.00000000000000	0.00000000000000	0.00000000000000	0.00000000000000	30.11949500000000	0.00000000000000	0.00000000000000	0.00000000000000	0.00000000000000	
24.00323900000000	38.26470800000000	771.93793100000005	62.63326300000000	0.33057600000000	0.00000000000000	0.12718000000000	0.00000000000000	0.00000000000000	0.00000000000000	0.00000000000000	0.00000000000000	0.00000000000000	0.00000000000000	30.20845200000000	0.00000000000000	0.00000000000000	0.00000000000000	0.00000000000000	
24.00491300000000	37.80980900000000	772.35198100000002	62.71251900000000	0.33023100000000	0.00000000000000	0.12714500000000	0.00000000000000	0.00000000000000	0.00000000000000	0.00000000000000	0.00000000000000	0.00000000000000	0.00000000000000	30.28957300000000	0.00000000000000	0.00000000000000	0.00000000000000	0.00000000000000	
24.00657100000000	37.35406000000000	772.62455299999999	62.77665400000000	0.32988600000000	0.00000000000000	0.12710800000000	0.00000000000000	0.00000000000000	0.00000000000000	0.00000000000000	0.00000000000000	0.00000000000000	0.00000000000000	30.36228900000000	0.00000000000000	0.00000000000000	0.00000000000000	0.00000000000000	
24.00824500000000	36.89700100000000	772.75712999999996	62.82496600000000	0.32953900000000	0.00000000000000	0.12707100000000	0.00000000000000	0.00000000000000	0.00000000000000	0.00000000000000	0.00000000000000	0.00000000000000	0.00000000000000	30.42606800000000	0.00000000000000	0.00000000000000	0.00000000000000	0.00000000000000	
